<?xml version="1.0" standalone="no"?>
<svg viewBox="0 0 200 200" xmlns="http://www.w3.org/2000/svg">
  <path fill="#21219695" d="M37.5,-67.4C47.9,-59,55,-47.4,63.6,-35.7C72.2,-23.9,82.2,-12,85.7,2C89.2,16,86.1,32,78,44.5C69.8,57,56.6,66,42.7,74C28.9,81.9,14.4,88.8,0,88.8C-14.4,88.8,-28.8,81.9,-42.3,73.7C-55.8,65.5,-68.4,56.2,-73.7,43.7C-79,31.2,-76.9,15.6,-72.8,2.3C-68.8,-10.9,-62.8,-21.9,-56.2,-32.1C-49.6,-42.3,-42.5,-51.7,-33,-60.6C-23.6,-69.5,-11.8,-77.8,0.9,-79.3C13.6,-80.9,27.2,-75.7,37.5,-67.4Z" transform="translate(100 100)" />
</svg>
