<?xml version="1.0" standalone="no"?>
<svg viewBox="0 0 200 200" xmlns="http://www.w3.org/2000/svg">
  <path fill="#6464DC" d="M35.9,-65.6C45.1,-56.7,50.4,-44.4,56.9,-32.9C63.4,-21.4,71.2,-10.7,74.4,1.9C77.7,14.5,76.4,28.9,70.5,41.5C64.6,54.1,54.2,64.9,41.6,71.9C29.1,79,14.6,82.3,1.4,79.9C-11.8,77.6,-23.6,69.5,-33.1,60.6C-42.6,51.8,-49.7,42.3,-59.8,32.1C-70,21.9,-83.2,10.9,-83.6,-0.3C-84.1,-11.5,-71.8,-22.9,-63.8,-36.9C-55.9,-51,-52.2,-67.6,-42.3,-76C-32.4,-84.5,-16.2,-84.8,-1.5,-82.3C13.3,-79.8,26.6,-74.4,35.9,-65.6Z" transform="translate(100 100)" />
</svg>
