<?xml version="1.0" standalone="no"?>
<svg xmlns:xlink="http://www.w3.org/1999/xlink" id="wave" style="transform:rotate(0deg); transition: 0.3s" viewBox="0 0 1440 470" version="1.1" xmlns="http://www.w3.org/2000/svg"><defs><linearGradient id="sw-gradient-0" x1="0" x2="0" y1="1" y2="0"><stop stop-color="rgba(100, 100, 220, 1)" offset="0%"/><stop stop-color="rgba(63, 63, 212, 1)" offset="100%"/></linearGradient></defs><path style="transform:translate(0, 0px); opacity:1" fill="url(#sw-gradient-0)" d="M0,329L80,329C160,329,320,329,480,274.2C640,219,800,110,960,101.8C1120,94,1280,188,1440,250.7C1600,313,1760,345,1920,297.7C2080,251,2240,125,2400,117.5C2560,110,2720,219,2880,282C3040,345,3200,360,3360,313.3C3520,266,3680,157,3840,109.7C4000,63,4160,78,4320,109.7C4480,141,4640,188,4800,235C4960,282,5120,329,5280,360.3C5440,392,5600,407,5760,399.5C5920,392,6080,360,6240,352.5C6400,345,6560,360,6720,376C6880,392,7040,407,7200,383.8C7360,360,7520,298,7680,282C7840,266,8000,298,8160,321.2C8320,345,8480,360,8640,376C8800,392,8960,407,9120,399.5C9280,392,9440,360,9600,360.3C9760,360,9920,392,10080,399.5C10240,407,10400,392,10560,376C10720,360,10880,345,11040,313.3C11200,282,11360,235,11440,211.5L11520,188L11520,470L11440,470C11360,470,11200,470,11040,470C10880,470,10720,470,10560,470C10400,470,10240,470,10080,470C9920,470,9760,470,9600,470C9440,470,9280,470,9120,470C8960,470,8800,470,8640,470C8480,470,8320,470,8160,470C8000,470,7840,470,7680,470C7520,470,7360,470,7200,470C7040,470,6880,470,6720,470C6560,470,6400,470,6240,470C6080,470,5920,470,5760,470C5600,470,5440,470,5280,470C5120,470,4960,470,4800,470C4640,470,4480,470,4320,470C4160,470,4000,470,3840,470C3680,470,3520,470,3360,470C3200,470,3040,470,2880,470C2720,470,2560,470,2400,470C2240,470,2080,470,1920,470C1760,470,1600,470,1440,470C1280,470,1120,470,960,470C800,470,640,470,480,470C320,470,160,470,80,470L0,470Z"/></svg>